<svg width="144" height="196" viewBox="0 0 144 196" fill="none" xmlns="http://www.w3.org/2000/svg">
<path fill-rule="evenodd" clip-rule="evenodd" d="M28.4785 173.043C45.0392 175.58 61.9 175.708 78.5986 174.787C85.207 174.288 91.8358 174.198 98.4388 174.836C102.341 175.128 119.448 176.447 120.846 172.923C119.966 154.153 118.185 135.224 112.719 117.172C110.471 110.762 108.54 105.443 104.153 100.138C102.77 98.6902 99.7888 95.6528 98.08 94.6619C96.5998 93.8041 95.9812 94.1102 95.131 92.6608C94.2862 91.0595 93.6634 88.3857 92.464 87.2563C91.243 86.1057 89.4334 86.517 87.19 86.8879C87.6022 81.271 85.0318 79.8403 81.4906 78.7726C75.2662 76.3765 69.1186 77.5803 67.552 85.2231C64.6474 85.2231 63.0154 86.4838 61.2514 87.6955C60.5302 88.1903 61.0318 89.4522 60.1708 89.8412C58.5772 90.4135 55.761 90.2737 54.2267 90.9779C47.2493 94.1804 41.0348 98.8251 36.9536 105.608C27.804 120.089 21.5189 150.595 22.6066 167.758C22.13 168.512 22.789 169.593 22.9565 170.403C23.1679 171.109 23.8525 171.577 24.5671 171.497C25.5641 172.579 27.1063 172.819 28.4785 173.043Z" fill="white"/>
<path fill-rule="evenodd" clip-rule="evenodd" d="M97.025 94.2373C96.9236 94.1804 97.013 94.034 97.115 94.0824C102.027 96.406 105.794 100.483 108.445 105.194C111.19 110.072 112.755 115.61 114.104 121.023L114.153 121.219C115.591 127.009 116.814 132.86 117.915 138.724C119.03 144.663 119.925 150.639 120.645 156.639C121.002 159.606 121.319 162.578 121.567 165.556C121.69 167.045 121.803 168.534 121.904 170.024C121.944 170.62 121.982 171.216 122.015 171.812L122.038 172.259C122.058 172.665 122.106 173.072 122.007 173.473C121.921 173.818 121.74 174.13 121.581 174.447C121.265 175.073 120.402 174.97 120.062 174.447L119.963 174.294C119.738 173.943 119.551 173.617 119.48 173.181C119.412 172.757 119.409 172.314 119.379 171.887C119.322 171.101 119.274 170.314 119.22 169.527C119.104 167.872 118.975 166.217 118.833 164.564C118.549 161.301 118.246 158.04 117.874 154.785C117.212 149.001 116.381 143.232 115.402 137.494C114.445 131.889 113.236 126.34 111.974 120.799L111.843 120.225C109.634 110.55 106.228 99.4083 97.025 94.2373ZM44.7129 132.123C44.749 132.027 44.9044 132.004 44.9307 132.123C45.2615 133.626 45.2942 135.173 45.3448 136.711C45.3946 138.229 45.3925 139.753 45.3706 141.271C45.2898 146.851 45.1379 152.426 45.0066 158.006C44.9409 160.796 44.8793 163.587 44.832 166.379C44.8141 167.425 44.7992 168.472 44.7867 169.519L44.7714 170.899C44.7637 171.51 44.7478 172.113 44.6741 172.723C44.6254 173.124 44.5217 173.507 44.3022 173.85C44.1463 174.094 43.9243 174.218 43.7079 174.384L43.6674 174.416C43.3912 174.635 43.1005 174.637 42.8271 174.416L42.7476 174.352C42.4864 174.146 42.2607 173.985 42.094 173.66C41.862 173.207 41.8249 172.714 41.7855 172.215C41.7256 171.458 41.7653 170.69 41.773 169.931C41.7885 168.408 41.8094 166.886 41.8359 165.363C41.9331 159.78 42.1253 154.195 42.4755 148.622C42.6405 145.996 42.8643 143.362 43.1644 140.748L43.2215 140.258C43.3125 139.488 43.3956 138.706 43.4891 137.92C42.0926 136.93 40.8651 135.728 39.8183 134.363C39.7412 134.263 39.868 134.123 39.9611 134.219C41.0307 135.337 42.2571 136.227 43.6149 136.927C43.8373 135.283 44.1432 133.648 44.7129 132.123ZM68.0438 82.3521C68.0624 82.3369 68.0924 82.3303 68.111 82.3521C68.411 82.7047 68.3504 83.2443 68.36 83.692L68.3612 83.7331C68.3822 84.3871 68.3864 85.0392 68.3846 85.6937L68.3774 87.7765C68.3768 88.0627 68.354 88.3609 68.3684 88.6489L68.3756 88.7608C68.5334 88.9235 68.6066 89.1588 68.5532 89.3954C68.5436 89.6984 68.3864 89.9513 68.1572 90.1104L68.6486 90.8139L69.1406 91.5169C70.1546 92.9669 71.18 94.4049 72.248 95.8156C73.3376 97.2535 74.4998 98.6376 75.716 99.9685C76.31 100.619 76.9142 101.26 77.5322 101.887C77.7836 102.141 78.041 102.39 78.296 102.641L78.5492 102.894C78.6992 103.045 78.8876 103.194 78.9866 103.385C79.0454 103.498 79.0586 103.777 79.0796 103.823C79.2668 104.239 78.947 104.902 78.4148 104.694L78.4394 104.678C78.536 104.61 78.4742 104.609 78.2528 104.675C78.1136 104.674 77.9828 104.642 77.8604 104.578L77.8244 104.558C77.6522 104.47 77.4986 104.299 77.3588 104.162L77.324 104.129C77.0048 103.827 76.7 103.507 76.394 103.192C75.7544 102.533 75.1298 101.86 74.525 101.169C73.3184 99.7918 72.1742 98.3575 71.0906 96.879C69.9872 95.3734 68.9612 93.7902 68.0792 92.1424C67.7444 91.5169 67.4378 90.8793 67.1432 90.2344C66.5708 90.0493 66.4376 89.4347 66.4778 88.7426C66.2666 88.2466 66.0758 87.7396 65.9636 87.2224C65.948 87.1516 66.0386 87.0845 66.0926 87.1468C66.2756 87.3567 66.4454 87.5799 66.6086 87.8092C66.707 87.324 66.8312 86.8776 66.89 86.5927L67.1438 85.3362C65.7128 85.2612 64.145 85.854 63.1586 86.8915C63.1058 87.1619 62.8994 87.3555 62.6984 87.6084C62.4686 87.8969 62.2682 88.2212 62.1188 88.5599C61.7876 89.3113 61.9748 90.4183 61.331 90.9694C61.2644 91.0269 61.1894 91.0668 61.112 91.0916C61.4174 92.6009 61.2788 94.2645 61.2722 95.7962L61.2716 95.9311C61.2734 97.6449 61.2164 99.3605 61.151 101.074L61.0844 102.769C60.9974 105.029 60.9416 107.291 61.1594 109.539C62.1536 108.651 63.182 107.803 64.2458 106.995C64.9448 106.464 65.6582 105.952 66.3848 105.459L66.9746 105.061C67.682 104.583 68.4062 104.091 69.1808 103.748C70.1936 103.3 71.1566 103.454 72.1346 103.913C73.1084 104.371 74.0534 104.902 75.008 105.398C75.98 105.903 76.9532 106.403 77.9264 106.904C78.5708 107.236 79.5152 107.536 79.9874 108.148C80.018 108.012 80.0528 107.877 80.0942 107.743C80.0474 107.538 80.0654 107.317 80.1794 107.106C81.7676 104.162 83.237 101.148 84.6962 98.1379C85.4348 96.6147 86.1374 95.0733 86.8772 93.5507L87.5966 92.068C87.7166 91.8205 87.8372 91.5737 87.9584 91.3275C88.1402 90.9585 88.3292 90.5931 88.5128 90.2247C88.5902 90.0693 88.6874 89.915 88.763 89.7583L88.799 89.6791C88.8008 89.6754 88.9748 89.1225 88.8404 89.1752L88.8284 89.1806C88.76 89.2199 88.7048 89.1328 88.7492 89.0772C88.94 88.8394 89.2052 89.0499 89.3138 89.2695C89.6126 89.8745 89.0642 90.8242 88.8536 91.4031L88.8416 91.4358C88.187 93.3045 87.446 95.1386 86.6864 96.9668C85.2302 100.471 83.6654 103.921 82.1042 107.377L82.0862 107.436C82.4186 107.179 82.7744 106.946 83.0786 106.718C83.8466 106.145 84.6368 105.599 85.4258 105.055C86.8724 104.058 88.3586 103.127 89.8694 102.233L90.1718 102.054C90.926 101.611 91.6736 101.252 92.5694 101.385C93.4016 101.508 94.175 101.959 94.9268 102.325L95.0048 102.363L97.3274 103.476C97.079 102.478 96.8102 101.484 96.53 100.494C95.9828 98.562 95.3804 96.6468 94.7276 94.7491C94.118 92.9754 93.4592 91.2211 92.762 89.4813L92.552 88.9586C92.2676 88.2423 91.985 87.4614 91.1726 87.2406C90.3608 87.0198 89.4296 87.347 88.6874 86.88C88.6202 86.8377 88.628 86.7258 88.7102 86.7052L89.168 86.5884C90.0278 86.3731 91.0358 86.1559 91.8488 86.3658C92.7332 86.5945 93.4652 87.3428 93.8942 88.1214C94.3718 88.9876 94.7078 89.9567 95.0702 90.8805L95.1278 91.0257C95.543 92.071 95.9432 93.1218 96.3254 94.1798C97.0904 96.2947 97.787 98.4349 98.417 100.595C98.7206 101.635 99.0086 102.681 99.2858 103.729C99.3656 104.031 99.497 104.396 99.6044 104.777C99.728 104.899 99.845 105.034 99.9542 105.189C100.137 105.446 100.006 105.746 99.7796 105.9C99.7712 106.162 99.713 106.409 99.575 106.62C99.0356 107.446 97.6094 107.233 97.6676 106.123C97.6766 105.953 97.742 105.791 97.8416 105.654L97.8386 105.632L97.8272 105.591C97.58 105.472 97.331 105.338 97.0694 105.207L94.631 103.993C93.9254 103.64 93.1424 103.097 92.3576 102.962C91.6256 102.838 90.8534 103.388 90.224 103.72L90.1832 103.741C88.6628 104.527 87.1538 105.339 85.6502 106.158C84.9164 106.557 84.1922 106.974 83.4614 107.378C82.85 107.717 82.1906 108.202 81.5036 108.393C81.2096 108.623 80.861 108.592 80.5814 108.419C80.7092 109.219 80.7014 110.039 80.7404 110.857C80.7932 111.95 80.8016 113.046 80.819 114.14L80.8262 114.55C80.8724 116.97 80.897 119.391 80.906 121.811C80.9384 130.43 80.8442 139.05 80.822 147.669C80.8106 151.999 80.726 156.333 80.6144 160.661C80.567 162.495 80.468 164.327 80.3612 166.159L80.3024 167.158C80.1782 169.265 80.105 171.397 79.718 173.476C79.6676 173.747 79.2122 173.754 79.1678 173.476C78.812 171.248 78.7922 168.971 78.7232 166.717L78.7088 166.266C78.6266 163.846 78.5876 161.427 78.596 159.006C78.6266 150.383 78.8486 141.767 79.0304 133.148C79.1216 128.817 79.1834 124.485 79.3256 120.155C79.3964 117.989 79.4768 115.824 79.5722 113.659C79.6148 112.692 79.6556 111.726 79.7192 110.761L79.748 110.347C79.7678 110.078 79.784 109.811 79.8032 109.546C78.938 109.865 78.1472 109.275 77.369 108.872C76.4726 108.407 75.5762 107.94 74.6792 107.476L73.781 107.012L71.9846 106.088C71.1758 105.671 70.5524 105.257 69.6896 105.746C66.581 107.504 63.7244 109.845 61.1354 112.301C60.6392 112.772 59.5902 112.646 59.4645 111.856C58.9273 108.484 59.254 105.063 59.5282 101.68L59.6293 100.425C59.7519 98.9243 59.8853 97.4247 60.0632 95.9311C60.1424 95.2626 60.2216 94.5948 60.3092 93.9282L60.377 93.4279C60.4862 92.6372 60.5576 91.8514 60.791 91.0934C60.7178 91.0692 60.647 91.0299 60.5834 90.9694C59.8814 90.2979 60.2198 89.1322 60.5402 88.3331C60.8564 87.5442 61.3388 86.8558 61.943 86.2636C62.0744 86.1341 62.2604 86.0507 62.447 86.0464C63.911 85.0676 65.5178 84.5794 67.19 85.1136C67.2368 84.8874 67.2848 84.6611 67.3352 84.4355L67.3868 84.2098C67.5164 83.6502 67.565 82.7259 68.0438 82.3521ZM83.0528 170.727C83.507 170.6 84.0044 170.734 84.3374 171.069C84.6704 171.405 84.8024 171.907 84.677 172.365C84.6146 172.591 84.5012 172.787 84.3374 172.953C84.1844 173.107 84.0062 173.216 83.8022 173.282L83.7548 173.296L83.6804 173.327C83.453 173.389 83.225 173.389 82.997 173.327C82.7792 173.265 82.5902 173.154 82.43 172.994C82.2704 172.832 82.1606 172.641 82.0994 172.421C82.0382 172.191 82.0382 171.962 82.0994 171.732L82.1306 171.657C82.193 171.432 82.3064 171.236 82.4696 171.069C82.6346 170.904 82.829 170.79 83.0528 170.727ZM110.036 125.052C110.111 124.966 110.232 125.076 110.185 125.168C109.477 126.568 108.688 127.958 107.913 129.322C107.976 129.7 108.037 130.075 108.108 130.44C108.41 131.999 108.78 133.529 109.021 135.101C109.888 140.755 110.338 146.47 110.725 152.174C111.112 157.899 111.162 163.626 111.22 169.362C111.225 169.859 110.845 170.437 110.338 170.531C110.105 170.574 109.931 170.565 109.699 170.531C109.17 170.452 108.84 169.841 108.817 169.362C108.665 166.157 108.461 162.955 108.225 159.754C107.806 154.08 107.55 148.39 107.212 142.709L107.092 140.724C106.965 138.573 106.848 136.42 106.81 134.265C106.784 132.838 106.86 131.411 106.813 129.985C106.77 128.669 106.638 127.238 106.926 125.945C106.936 125.896 107.013 125.884 107.034 125.931C107.334 126.566 107.523 127.256 107.669 127.961C108.44 126.977 109.225 125.992 110.036 125.052ZM59.5351 90.2834C59.6433 90.2749 59.639 90.4389 59.5351 90.451C58.0221 90.6282 56.5605 91.2495 55.1318 91.777L55.0095 91.8218C53.5662 92.3505 52.159 92.9645 50.8048 93.6965C48.1572 95.1277 45.7259 96.9734 43.5763 99.0865C34.9939 107.521 31.0828 119.685 28.2168 131.115C26.6245 137.466 25.4921 143.924 24.7582 150.431C24.3953 153.649 24.1387 156.88 23.9891 160.116C23.9125 161.774 23.8642 163.434 23.8441 165.094C23.8337 165.944 23.8306 166.794 23.8317 167.645C23.8322 168.034 23.9011 168.525 23.7978 168.903C23.702 169.254 23.4318 169.562 23.2319 169.855C22.9949 170.201 22.5691 170.182 22.3289 169.855L22.2404 169.735C21.9842 169.392 21.7335 169.065 21.6969 168.616C21.6577 168.136 21.6853 167.641 21.6836 167.159C21.6795 166.187 21.6915 165.215 21.7107 164.243C21.7479 162.381 21.8206 160.52 21.9288 158.66C22.1483 154.887 22.5097 151.12 23.0271 147.377C23.9469 140.722 25.3255 134.131 27.1314 127.663C28.8351 121.562 30.8533 115.479 33.7285 109.828C36.3981 104.581 39.9002 99.6993 44.5214 96.0321C46.6704 94.3268 49.0098 92.9058 51.5319 91.8351C52.8039 91.2955 54.1398 90.8551 55.4982 90.6034C56.8417 90.3554 58.1793 90.3899 59.5351 90.2834ZM83.3132 159.943C83.5532 159.941 83.8202 159.994 84.0266 160.128L84.3014 160.343C84.3758 160.439 84.4502 160.536 84.524 160.633C84.6962 160.859 84.719 161.225 84.683 161.494C84.6746 161.674 84.6218 161.842 84.524 161.996L84.3146 162.27C84.1136 162.436 83.9456 162.554 83.702 162.633C83.5742 162.675 83.4518 162.684 83.3294 162.677L83.2886 162.675L83.3132 162.678L83.27 162.673C83.2304 162.67 83.1902 162.665 83.1506 162.66C83.123 162.656 83.0954 162.654 83.0684 162.65C83.042 162.649 83.0168 162.647 82.9904 162.65C82.6808 162.679 82.3688 162.502 82.1492 162.298C81.9512 162.115 81.773 161.726 81.8006 161.45L81.8126 161.335C81.8336 161.14 81.8504 161.064 81.932 160.869C82.0118 160.679 82.1228 160.511 82.2734 160.369C82.5626 160.098 82.9166 159.946 83.3132 159.943ZM82.3538 145.714C82.7654 145.263 83.4716 145.229 83.9816 145.503C84.1058 145.57 84.2198 145.676 84.329 145.766C84.605 145.991 84.7136 146.397 84.7286 146.739C84.7436 147.077 84.5672 147.479 84.329 147.712L84.2714 147.768C84.1292 147.908 83.9258 148.029 83.7272 148.066C83.4068 148.125 83.1374 148.123 82.8386 147.996C82.5824 147.887 82.361 147.712 82.211 147.474L82.1864 147.434C82.1762 147.417 82.1666 147.4 82.157 147.382L82.1438 147.356C81.8582 146.802 81.935 146.175 82.3538 145.714ZM82.5668 131.412C82.7522 131.353 82.9376 131.345 83.123 131.387C83.249 131.387 83.3666 131.419 83.4752 131.483C83.5934 131.516 83.696 131.576 83.783 131.664C83.8874 131.726 83.9714 131.81 84.0332 131.916C84.1568 132.052 84.2396 132.211 84.2828 132.394L84.3326 132.768L84.2828 133.143L84.1424 133.478C84.1034 133.529 84.0644 133.58 84.0254 133.631C83.963 133.737 83.8796 133.821 83.7746 133.884C83.7062 133.953 83.6276 134.004 83.54 134.039C83.2298 134.264 82.8158 134.337 82.448 134.235C82.2296 134.173 82.0394 134.062 81.8786 133.901C81.719 133.738 81.608 133.547 81.5474 133.327L81.5222 133.151C81.4892 132.915 81.4844 132.784 81.5504 132.484C81.5798 132.352 81.6638 132.166 81.7082 132.088C81.8966 131.753 82.205 131.524 82.5668 131.412ZM98.6696 121.122C99.2024 121.118 99.7346 121.119 100.267 121.125L100.666 121.13C101.335 121.141 101.908 121.072 102.433 121.539C102.815 121.879 102.647 122.449 102.285 122.704C101.736 123.092 101.048 122.897 100.417 122.854C99.752 122.81 99.086 122.772 98.42 122.742C97.1306 122.684 95.8406 122.646 94.5494 122.641C93.2618 122.635 91.9718 122.648 90.6836 122.669C89.3732 122.69 88.0088 122.813 86.7056 122.677C86.5268 122.658 86.4866 122.42 86.663 122.358C87.8912 121.93 89.2724 121.791 90.5594 121.628C91.8866 121.458 93.2138 121.339 94.5494 121.261C95.9216 121.182 97.2956 121.132 98.6696 121.122ZM82.565 116.913L82.6088 116.915C82.8428 116.915 83.0624 116.971 83.267 117.082L83.3108 117.106L83.5922 117.325C83.7644 117.5 83.8832 117.706 83.9492 117.944L83.999 118.317C84.0062 118.51 83.9666 118.69 83.8796 118.857C83.8232 119.031 83.7272 119.181 83.5922 119.308C83.4662 119.445 83.3168 119.542 83.1446 119.599C82.9916 119.679 82.8278 119.72 82.6526 119.72L82.6088 119.719C82.358 119.718 82.124 119.654 81.9068 119.528L81.6254 119.308C81.4532 119.134 81.3338 118.927 81.2678 118.689L81.218 118.317C81.2114 118.124 81.251 117.944 81.338 117.777C81.3944 117.602 81.4898 117.452 81.6254 117.325C81.7514 117.189 81.9008 117.092 82.073 117.035C82.226 116.954 82.3898 116.913 82.565 116.913ZM86.687 83.9697C86.9864 83.5317 87.5294 83.9213 87.4514 84.2727C87.4718 85.2612 87.5222 86.22 87.7448 87.1879C87.8468 87.6314 87.9806 88.0748 88.187 88.4807L88.2734 88.6519C88.5404 89.1836 88.748 89.6857 88.3886 90.2689C88.2188 90.5441 87.9128 90.751 87.5804 90.7365C86.1086 90.6724 85.9058 88.6053 85.8164 87.4511C85.724 86.263 86.0114 84.9569 86.687 83.9697Z" fill="black"/>
<path fill-rule="evenodd" clip-rule="evenodd" d="M78.1856 30.5195C83.861 30.5195 90.6704 33.2946 91.2494 33.3501L91.265 33.3509C91.5698 33.3509 92.7596 34.2654 94.8356 36.0946L92.5874 40.5176L92.7692 40.6928C93.6398 41.5347 94.3832 42.3022 94.97 42.9072C99.7604 47.8467 100.621 67.2407 99.4922 74.0039C98.3636 80.7677 96.2726 87.3857 86.5376 87.3857C76.8026 87.3857 65.972 81.4815 64.3034 79.6431C63.191 78.4175 61.9418 77.8301 60.5558 77.8816C60.4988 77.809 60.4418 77.7364 60.386 77.6644L60.182 77.6353C58.2632 77.3553 56.8883 76.9778 56.0574 76.5035C54.4345 75.5773 52.6507 70.7088 52.6507 69.6362C52.6507 68.5746 49.9871 60.8507 49.9338 60.0334L49.933 60.0108C49.933 59.3275 46.4533 56.1864 46.4533 55.1889C46.4533 54.1913 45.7519 54.2519 46.4533 50.7367L46.6571 49.7041C47.4035 45.9614 48.8644 39.7642 54.4345 37.0713C60.5558 34.1121 72.4532 30.5195 78.1856 30.5195Z" fill="white"/>
<path fill-rule="evenodd" clip-rule="evenodd" d="M53.4893 36.9323C56.542 33.6641 73.873 28.609 82.6414 29.6806L82.9042 29.7149C83.6038 29.8045 84.2932 29.94 84.9742 30.1241C87.1738 30.6423 89.446 31.4269 91.264 32.7376C92.7814 33.8098 97.5682 35.5607 96.157 38.3655C96.6802 39.3652 96.8758 40.6003 96.5218 41.5849C96.4774 41.925 96.3736 42.2382 96.2404 42.563C97.3582 44.2265 98.2432 46.1077 98.9596 47.8971C100.211 52.4002 100.99 57.0866 101.105 61.6807C101.484 70.41 100.535 80.8367 92.9974 86.4808C88.444 90.0578 81.3118 90.1775 76.1944 85.7433C75.904 85.3967 74.5384 84.4609 74.9944 84.2969C75.13 84.4415 75.2692 84.5819 75.4114 84.7204C75.4048 84.7047 75.4036 84.6895 75.4066 84.6732L75.2728 84.551C75.0214 84.3163 74.6956 83.9763 75.0664 84.0429C75.0832 84.0616 75.1006 84.0786 75.1186 84.0973C75.1972 84.1451 75.2566 84.1862 75.3028 84.2225L75.3262 84.2419L75.319 84.234C75.1054 84.0041 74.977 83.77 75.2968 83.9194L75.3388 83.9406C75.481 84.0913 75.6256 84.2358 75.7726 84.3762C75.7702 84.3598 75.7726 84.3429 75.7816 84.3254L75.6442 84.1917C75.5104 84.0592 75.5308 84.0586 75.5962 83.9521C75.3118 83.5498 75.8428 83.7888 75.88 83.9455C76.2124 83.8662 76.504 84.4953 76.7182 84.5722C86.0986 91.8453 99.7108 85.3919 99.4906 65.1234L99.487 64.7272C99.4222 58.2462 98.8816 51.5851 96.2242 45.7184C95.9656 45.1533 95.6764 44.6035 95.3584 44.0717C95.1394 43.6727 94.9048 43.2841 94.6522 42.9056C93.946 42.8481 93.2488 42.7177 92.5618 42.5157C92.326 42.4556 92.0932 42.3891 91.8598 42.3111C88.4524 42.4985 85.1212 42.7025 81.7042 42.8958L80.6368 42.9628C77.7424 43.1505 74.749 43.4511 72.4132 45.2569C70.1218 46.9008 70.111 50.1425 68.149 51.9474C65.3518 53.8626 65.3314 55.5895 64.7926 58.4117C64.8322 60.5392 66.295 63.6304 63.6112 64.5257C64.0642 65.1766 63.433 64.8639 63.3832 64.6358C63.3778 64.637 63.373 64.6383 63.3694 64.6383C63.7726 65.395 63.1792 64.9183 63.127 64.6752C63.0952 64.6661 63.0634 64.6431 63.0322 64.6116C63.4384 65.274 62.7814 64.8101 62.8204 64.6897C62.035 63.4713 60.418 63.2826 59.2784 63.605C59.2645 63.6486 59.2139 63.6522 59.1823 63.6292C54.3366 64.6885 55.5868 74.8067 60.5524 73.8285C60.7648 73.7849 60.76 73.8878 60.802 73.8974C60.6874 73.5938 61.0108 73.7172 61.0072 73.7813L61.027 73.7801C61.0426 73.7789 61.0366 73.7771 61.048 73.7813C60.937 73.16 61.561 74.0602 61.5118 74.0971C61.531 74.0856 61.5526 74.0789 61.5718 74.0765L61.5502 74.0172C61.4464 73.7389 61.4554 73.8545 61.456 73.6954C61.3786 73.4982 61.3726 73.5847 61.3912 73.4564C61.6642 73.2423 61.7452 73.8908 61.8364 73.9386C61.6798 73.7184 61.8046 73.5387 61.9522 73.6585C63.0706 76.0311 64.5148 78.2603 66.382 80.0164C66.5866 80.1791 66.793 80.3388 67.0072 80.4894C67.801 81.1875 69.0196 81.6358 69.763 82.2541C69.763 82.2643 69.7576 82.277 69.7504 82.2897L69.7672 82.3055L69.7846 82.3218L70.0432 82.447C70.1194 82.5124 70.1878 82.585 70.2484 82.6654C70.3132 82.741 70.3702 82.8239 70.4182 82.9122C70.4422 83.0199 70.3894 83.0647 70.288 83.0187C70.243 83.003 70.1992 82.9854 70.1548 82.9685C70.1572 82.9727 70.1584 82.9751 70.1608 82.9776C70.1758 82.9999 70.2742 83.2298 70.1608 83.1923L70.147 83.1875C70.0846 83.1645 70.0228 83.1385 69.9622 83.1143C70.0342 83.205 70.1002 83.3036 70.1584 83.3865C70.2208 83.4518 70.2586 83.5287 70.2736 83.6158C70.2712 83.6642 70.2448 83.6847 70.1962 83.6781C70.123 83.6539 70.0504 83.6285 69.9784 83.6012L69.9988 83.6412C70.0498 83.7428 70.1224 83.9128 69.9934 83.8559C69.883 83.8215 69.7768 83.7815 69.6706 83.7386C69.6616 83.7561 69.6436 83.7628 69.6082 83.7458C69.2698 83.6242 68.9428 83.476 68.6296 83.3012C68.3548 83.0992 68.077 82.9007 67.8004 82.6999C67.5406 82.5426 67.2898 82.3678 67.0504 82.1706C65.4472 81.1264 64.0438 79.7998 62.9308 78.3226C61.0684 79.9486 57.3457 78.3952 55.0429 77.1218C53.006 75.9839 52.2053 73.8799 51.9983 71.6114C51.568 68.5576 49.0936 67.5123 49.2658 60.8114C49.262 60.8126 49.258 60.8126 49.253 60.8126C49.163 60.786 49.0756 60.7503 48.9933 60.7043C48.9083 60.6632 48.8284 60.6148 48.7536 60.5561L48.661 60.4267C48.613 60.3999 48.5699 60.3717 48.5369 60.3436L48.5198 60.3659C48.4657 60.4317 48.5021 60.3326 48.5052 60.3129L48.3445 60.0924C47.9633 59.5675 47.5451 58.9786 47.2045 58.5076L47.1938 58.5268C47.1861 58.5412 47.182 58.5517 47.1856 58.5562C46.375 57.3815 45.6127 55.9626 45.4009 54.5889C45.1507 53.5308 45.2485 52.4405 45.4666 51.4603C46.402 48.0281 49.4661 40.2612 53.4893 36.9323ZM75.4882 84.3986L75.4372 84.3526L75.4822 84.4094C75.5056 84.4385 75.5296 84.4645 75.5686 84.4911C75.5662 84.4827 75.5662 84.4736 75.5674 84.4633C75.541 84.4433 75.5146 84.4216 75.4882 84.3986ZM82.6024 31.4052C76.6564 30.8895 70.8082 32.2108 65.134 33.8101L64.7422 33.9235C61.516 34.8521 58.1047 35.6877 55.3782 37.6751C51.5689 40.6179 49.6018 45.2994 47.8852 49.6218C46.3863 52.8332 47.1526 56.4544 49.4114 58.6969C49.6465 56.4685 50.0472 54.3053 50.6734 52.1596C50.8041 51.8243 50.7052 51.7145 50.9868 51.6708C51.4123 57.4533 49.317 61.7255 53.4634 68.5788C55.2625 71.8128 53.1798 74.1787 58.2604 75.8804L58.3978 75.9331C59.4563 76.3359 60.6124 76.6541 61.6486 76.4291L61.5562 76.2767C61.4614 76.1194 61.4326 76.0432 61.57 75.976C61.5664 75.9687 61.5616 75.9609 61.5562 75.9518C61.4452 75.7395 61.3372 75.5247 61.2346 75.3075C61.1926 75.3215 61.1506 75.3317 61.1074 75.3432C61.1356 75.3959 61.1392 75.4485 61.0606 75.466C60.7816 75.5628 60.4948 75.6015 60.2008 75.5834L60.1378 75.5786C59.8063 75.558 59.5973 75.4975 59.4103 75.4406C59.3484 75.4304 59.2862 75.4201 59.2252 75.4074C58.6238 75.2731 57.9871 74.9307 57.575 74.5919C52.8775 71.9005 53.363 62.74 59.1531 61.8743C59.2719 56.1063 61.9918 46.3756 66.5056 40.8795C70.5856 35.8241 81.7246 33.6329 89.4742 34.4055C89.5876 34.4432 89.7004 34.4814 89.8132 34.5198C91.009 34.627 92.1484 35.1642 93.3448 35.4137C92.4856 34.7644 91.5112 34.3319 90.5074 33.9643C88.5076 32.7304 86.2144 32.0627 83.9992 31.5918C83.5408 31.478 83.0752 31.4154 82.6024 31.4052ZM58.888 66.5075C59.1993 66.3369 59.1637 66.5015 59.2353 66.4537C61.4746 66.2698 63.889 68.2473 65.1412 69.8958C65.0422 69.9992 64.7746 69.6925 64.7278 69.6435C64.7212 69.6502 64.714 69.655 64.7062 69.658L64.741 69.7076C65.2486 70.442 64.2424 69.5776 64.1488 69.3997C64.132 69.4082 64.1158 69.4136 64.0966 69.41C64.1764 69.4886 64.42 69.6943 64.4614 69.8407L64.5262 69.8946C65.1352 70.4209 65.0842 70.8159 64.393 70.0694C64.4098 70.1039 64.4158 70.1359 64.4044 70.1613L64.4284 70.1777C64.768 70.4172 65.0476 71.0851 64.3372 70.3991C64.411 70.9 63.6334 69.9321 63.6088 69.9393C62.2624 68.8734 60.2812 67.8372 58.5926 67.698L58.5345 67.6908C58.2247 67.6508 58.0782 67.5583 58.187 67.3538C57.8054 67.2625 57.8948 67.0725 58.0754 67.0792C57.8063 66.9007 58.0486 66.7295 58.2048 66.7967C58.0974 66.4966 58.528 66.6963 58.5673 66.6545C58.7908 66.3067 58.851 66.597 58.888 66.5075ZM54.194 47.9239C55.2696 47.5265 58.4466 48.716 58.1924 50.2915C58.0411 50.6532 57.5424 50.8604 57.1919 50.6563L56.7345 50.3463C55.9384 49.8086 55.2204 49.3371 54.3657 48.8681C53.9005 48.6353 53.7002 48.141 54.194 47.9239ZM60.3136 45.5827L59.8981 45.3101C57.6564 43.8304 54.4875 41.5882 60.1072 43.908C60.748 44.1851 61.5988 44.3489 61.9486 44.9641C62.4976 46.0981 61.0528 46.1743 60.3136 45.5827ZM60.565 38.9434C60.3856 38.2549 62.6236 39.0629 63.2752 39.2759L63.3742 39.3137C64.0084 39.5518 64.735 39.7728 65.1136 40.3245C65.5582 41.0867 64.6588 41.2446 64.102 40.9004C62.9602 40.1478 61.7086 39.58 60.565 38.9434ZM66.2572 35.7362C64.9972 34.3486 68.3686 35.6779 68.8738 36.0469L68.8882 36.0578C69.265 36.3254 69.1888 36.9017 68.8348 37.071C67.8274 37.0903 67.0858 36.2434 66.2572 35.7362ZM71.9902 34.2158C69.9874 32.7641 72.6256 33.4547 73.5418 34.0236C74.1664 34.5791 73.5232 35.5169 71.9902 34.2158Z" fill="black"/>
<path fill-rule="evenodd" clip-rule="evenodd" d="M79.1423 70.6362C81.3149 70.37 83.4215 71.0415 85.5455 71.3797C86.6669 71.5581 87.7901 71.6912 88.9253 71.7408C89.1533 71.7511 89.3819 71.7566 89.6105 71.7614C89.6315 71.5587 89.7443 71.3724 89.9879 71.2605C90.4877 71.0324 90.8879 70.929 91.4369 70.9514C91.9391 70.9714 92.4431 71.0234 92.9381 71.1147C93.8363 71.2811 94.7387 71.658 95.3957 72.3125C96.9167 73.8279 96.6851 76.2621 95.5103 77.913C93.0821 81.3237 88.6511 81.4822 84.8567 81.4374L84.5063 81.4331C81.0509 81.3829 76.1069 81.9026 74.5373 77.9378C73.9601 76.4793 74.0399 74.7891 74.7473 73.3905C75.5903 71.7227 77.3645 70.854 79.1423 70.6362ZM89.9357 76.3154L89.9045 76.3166C88.3115 76.3783 86.7185 76.4218 85.1249 76.4503C85.1723 76.8634 85.2209 77.2766 85.2767 77.6886C85.3205 78.0128 85.3673 78.3365 85.4159 78.6601C85.4363 78.7968 85.5119 79.0092 85.4909 79.1453L85.4831 79.1985C85.5647 79.236 85.6391 79.2959 85.6943 79.3836C85.7135 79.4139 85.7273 79.4441 85.7411 79.4744C86.9789 79.484 88.3109 79.4598 89.5721 79.233L89.5751 79.2058C89.5979 79.043 89.6645 78.9335 89.7539 78.8585C89.8427 78.3401 89.8343 77.7878 89.8685 77.2736C89.8901 76.9542 89.9135 76.6348 89.9357 76.3154ZM83.9069 76.4727C82.7591 76.492 81.6101 76.5071 80.4623 76.4932L79.9409 76.4848C80.0507 77.0806 80.1707 77.6741 80.2703 78.2736C80.3741 78.8985 79.8287 79.2959 79.3571 79.2796C79.4099 79.2886 79.4627 79.2977 79.5155 79.305C80.9903 79.5155 82.5215 79.4598 84.0179 79.458C83.9369 78.9838 83.9699 78.449 83.9579 78.0534L83.9555 77.9923C83.9327 77.4853 83.9165 76.979 83.9069 76.4727ZM76.1075 76.3632C76.1471 76.6729 76.2245 76.976 76.3409 77.2579C76.8311 78.4502 77.9549 79.0067 79.1435 79.2409C78.9371 79.1689 78.7733 78.9965 78.7319 78.7006C78.6293 77.9656 78.5921 77.2179 78.5891 76.4714C77.7605 76.4636 76.9265 76.446 76.1075 76.3632ZM94.2569 76.1085C93.6671 76.2488 92.9813 76.1847 92.4023 76.2113C91.8599 76.2361 91.3175 76.2579 90.7757 76.2797C90.8009 76.6529 90.8261 77.0262 90.8531 77.3994C90.8879 77.8822 90.8909 78.3915 90.9827 78.8718C92.0741 78.4962 93.0521 77.8937 93.7853 76.9306C93.9683 76.6904 94.1321 76.4085 94.2569 76.1085ZM78.8927 72.5926C77.9105 72.8267 76.9811 73.3221 76.4819 74.2289C76.1855 74.7667 76.0547 75.4037 76.0799 76.0323C76.9097 75.9349 77.7545 75.898 78.5945 75.8671C78.5975 75.7147 78.6011 75.5622 78.6053 75.4098L78.6185 75.0202C78.6413 74.2767 78.6527 73.3427 78.8927 72.5926ZM83.9759 72.6827L83.5433 72.6343C82.3427 72.4958 81.1427 72.3512 79.9415 72.4341C79.7681 72.4462 79.5917 72.4655 79.4147 72.4916C79.6271 73.2641 79.6091 74.1715 79.6979 74.9361C79.7321 75.2319 79.7753 75.5247 79.8233 75.8169L80.0315 75.8072C81.3203 75.7371 82.6097 75.6935 83.8997 75.6421C83.8991 75.3977 83.9009 75.1533 83.9045 74.9089L83.9093 74.6645C83.9237 74.0402 83.8841 73.3367 83.9759 72.6827ZM90.0059 72.5841C88.7483 72.7886 87.4487 72.8321 86.2133 72.834C85.7195 72.8346 85.2263 72.8037 84.7337 72.7595C84.7655 73.0245 84.7823 73.2919 84.8069 73.5532C84.8555 74.0807 84.9107 74.6076 84.9713 75.1333L85.0253 75.5943C86.6105 75.5217 88.1951 75.4431 89.7797 75.362L90.0035 75.3499L90.0665 74.4649C90.1091 73.8751 90.1559 73.2852 90.2219 72.6978L90.1727 72.6797C90.1139 72.6555 90.0587 72.6222 90.0059 72.5841ZM90.5519 72.8037C90.6215 73.6379 90.6599 74.4758 90.7109 75.3112L91.7555 75.2549C91.9295 75.2452 92.1035 75.2356 92.2775 75.2253C92.9549 75.186 93.8243 74.9797 94.4939 75.172C94.5449 74.5586 94.3709 73.961 93.8219 73.5484C92.8577 72.8243 91.6307 73.082 90.5519 72.8037ZM86.9831 65.3454C88.5389 64.4465 92.4419 63.5282 92.6891 66.352C92.8025 67.6514 91.8449 68.7282 90.7265 69.2086L90.6845 69.2261C89.6357 69.6611 87.7763 70.1523 86.8685 69.2092C86.1131 68.424 87.1151 67.0169 88.0541 67.6599C88.5365 67.9902 89.5517 67.7464 90.0905 67.5897L90.1241 67.5795C90.7049 67.4071 91.4795 66.856 91.2389 66.1349C91.0265 65.4967 90.1223 65.3799 89.5553 65.3593C88.7099 65.3285 87.8867 65.5269 87.0491 65.591C86.9165 65.6013 86.8757 65.4077 86.9831 65.3454ZM93.4265 60.8048C95.5379 60.7049 96.8513 63.0303 96.3659 64.9353C96.2819 65.2644 95.9171 65.5868 95.5655 65.5499L95.4767 65.5414C95.4317 65.5372 95.3861 65.5317 95.3447 65.5202C95.0105 65.4265 94.7111 65.0762 94.7357 64.7127L94.7417 64.6068C94.7909 63.7066 94.6943 62.6698 93.6341 62.452C92.7347 62.2669 92.2325 63.1404 92.2217 63.9438C92.2199 64.0865 92.0609 64.1864 91.9361 64.1095C91.2857 63.7103 91.1729 62.9166 91.4213 62.233C91.7363 61.3667 92.5241 60.8477 93.4265 60.8048ZM77.7587 61.3038C79.2953 60.7866 80.9531 61.6123 81.6971 62.9825C81.9581 63.0588 82.2185 63.262 82.1825 63.5723C82.1297 64.0194 82.0511 64.3013 81.7439 64.6401C81.2633 65.1706 80.3633 64.8996 80.1635 64.2469L80.1551 64.2172C79.9277 63.3733 79.0073 62.8168 78.1685 63.112C77.1887 63.4568 77.2169 64.5009 76.5299 65.1089C76.4489 65.1803 76.3523 65.1918 76.2551 65.1446C75.5255 64.7889 75.6563 63.7181 75.9167 63.1047C76.2581 62.3008 76.9217 61.5851 77.7587 61.3038ZM75.6665 56.5977C76.9115 55.3163 80.1581 54.0763 81.0095 56.4425C81.1721 56.8932 80.8265 57.5009 80.3615 57.5944C79.5995 57.7473 78.9233 57.4137 78.1667 57.4735C77.5541 57.5222 76.9151 57.7288 76.4255 58.1115C75.0689 59.1717 74.7701 60.9651 73.8251 62.3141C73.7789 62.38 73.6895 62.3522 73.6811 62.2748C73.4657 60.3104 74.3027 58.0009 75.6665 56.5977ZM91.9037 55.3362C92.7299 55.0419 93.6653 55.0671 94.4957 55.3282C95.3327 55.5913 96.1007 56.091 96.6923 56.7437C96.9611 57.0402 97.2095 57.3672 97.4087 57.7153C97.5143 57.8998 97.6259 58.281 97.7459 58.5079C98.3969 58.8869 98.6747 59.7506 98.0921 60.365L98.0663 60.3919L97.9883 60.4699C97.6751 60.7824 97.2023 60.9185 96.7751 60.7933C95.8181 60.5138 95.7017 59.754 95.3705 58.9472C95.1521 58.4143 94.7771 57.9428 94.3229 57.5964C93.2489 56.7782 91.4873 56.5175 90.1943 56.9031C90.1259 56.9237 90.0449 56.8352 90.0941 56.771C90.3389 56.4508 90.4799 56.1881 90.8081 55.9299C91.1411 55.6677 91.5047 55.4784 91.9037 55.3362Z" fill="black"/>
<path fill-rule="evenodd" clip-rule="evenodd" d="M77.6695 78.3988C78.6955 75.9742 80.9352 74.1921 83.5146 73.5399C85.4082 73.0626 87.396 73.0784 89.3263 73.2677C90.3379 73.3663 91.4227 73.4468 92.3761 73.8255C93.1897 74.1491 93.8533 74.7613 94.3519 75.4794C94.9459 76.3305 95.3497 77.3045 95.6329 78.3026C95.6737 78.4448 95.7115 78.5875 95.7469 78.7315C95.6233 79.4847 95.3617 80.1259 94.6699 80.599C93.9949 81.0617 93.1896 81.2511 92.3868 81.3182C92.3076 81.2801 92.2314 81.2408 92.1618 81.2003C90.9108 80.478 90.0301 78.7708 88.4515 79.0019C87.0421 79.2082 86.1145 80.997 85.2762 82.0454C82.5865 82.3618 79.8979 81.5463 77.7091 79.9946C77.5981 79.4641 77.5915 78.9281 77.6695 78.3988ZM97.5751 76.5592C97.3596 75.9506 97.0885 75.3602 96.7675 74.8049C95.7055 72.9671 94.0747 71.5025 92.1391 70.6653C87.5605 68.6883 81.6355 70.0821 77.9383 73.3252C76.6747 74.434 75.3978 76.0631 75.0114 77.8156C74.8962 77.8386 74.7871 77.8991 74.6977 77.9844C72.0259 76.2876 69.2749 74.6554 67.1221 72.304C65.5585 70.5951 64.4713 68.5728 63.8053 66.3508C63.7507 66.1682 63.4584 66.1948 63.4674 66.3974C63.4698 66.4446 63.4723 66.4918 63.4747 66.539C63.4471 66.4519 63.3151 66.4966 63.3049 66.5813C62.9467 69.2806 62.4984 72.1425 62.9112 74.8557C63.1584 76.4751 63.8874 77.6602 64.8624 78.9402C65.9064 80.3122 67.0891 81.588 68.2981 82.8118C69.0649 83.5886 69.8665 84.4845 70.8055 85.0543C71.8981 85.7161 73.1376 86.2188 74.3034 86.7294C75.4896 87.2503 76.6933 87.7318 77.9203 88.1492C80.3725 88.9858 82.9068 89.5648 85.4856 89.8182C87.5502 90.0203 89.9101 90.2405 91.8883 89.4571C93.4051 88.857 94.629 87.7717 95.5998 86.4656C96.657 85.044 97.4928 83.424 97.9548 81.7163C98.4348 79.942 97.6758 76.8453 97.5751 76.5592Z" fill="black"/>
<path fill-rule="evenodd" clip-rule="evenodd" d="M102.434 61.9172C101.226 70.1626 92.789 71.0742 91.2902 62.8888C91.5308 62.7829 91.7036 62.5736 91.6676 62.1677C91.6592 60.3837 92.2082 58.4983 93.8036 57.5063C95.4524 56.4827 97.3814 56.3812 99.2894 56.407C102.93 56.3196 102.854 59.389 102.434 61.9172ZM89.9696 58.3315C88.8272 58.283 87.3812 58.3236 86.3576 59.0258C86.0762 58.2615 85.3454 57.4454 84.6068 57.009C87.3524 57.0901 90.179 56.8175 92.9456 56.6059C92.2832 57.0612 91.667 57.7452 91.2668 58.5359C90.8954 58.3361 90.3632 58.3548 89.9696 58.3315ZM84.9332 62.792C81.7646 73.7916 73.856 68.9974 72.9938 67.5873C71.4386 65.2547 71.1458 59.5839 72.5006 58.0677C74.4398 56.6965 77.1854 57.0494 79.4762 57.0158C83.6846 57.0731 86.6738 58.3429 84.9332 62.792ZM106.175 57.7323C105.315 57.6187 104.394 57.5959 103.594 57.9781C103.348 56.9217 102.574 56.0385 101.701 55.6498C101.595 55.5161 101.611 55.4442 101.25 55.4643C99.032 54.792 96.5504 55.1477 94.4192 55.8371C91.0532 56.123 87.5222 56.3484 84.128 56.7423C80.9486 55.3022 71.354 55.0911 70.7576 58.6407C70.0076 58.5275 68.7302 57.9322 68.1002 58.7398C63.4772 57.9493 58.6999 59.0479 54.0568 59.5372C52.8881 59.7543 52.2861 62.0939 53.6128 62.0618C54.3586 61.8574 53.5899 60.6051 54.5941 60.5108C59.074 60.0173 63.4556 59.3172 67.9814 59.2352C67.8242 60.0234 70.9748 60.0747 71.0216 59.6144C71.0282 59.6179 71.0354 59.6202 71.042 59.6233C70.2638 62.55 70.9664 66.7616 72.3734 68.5764C74.345 70.9526 79.2938 71.6344 81.4886 70.1057C84.3194 68.6944 87.2648 61.6111 86.4374 59.2577C87.9386 58.7777 89.423 58.9218 90.9812 59.1663C90.6242 60.1826 90.0086 62.6843 90.8948 62.9015C90.7322 67.8686 95.2136 70.9677 99.3452 68.9303C102.922 67.2371 104.172 61.8779 103.735 58.6247C104.18 59.4924 107.917 58.5477 106.175 57.7323Z" fill="black"/>
</svg>
