<svg width="1441" height="217" viewBox="0 0 1441 217" fill="none" xmlns="http://www.w3.org/2000/svg">
<path fill-rule="evenodd" clip-rule="evenodd" d="M0.264845 84.4138L60.2892 77.3353C120.313 70.2567 240.362 56.0997 360.352 70.7472C480.342 85.3947 600.272 128.847 720.292 129.092C840.311 129.337 960.418 86.3756 1080.5 57.8162C1200.57 29.2568 1320.62 15.0998 1380.65 8.02123L1440.67 0.942693L1440.23 216.977L1380.22 216.855C1320.21 216.732 1200.19 216.487 1080.17 216.242C960.154 215.996 840.134 215.751 720.115 215.506C600.096 215.261 480.077 215.015 360.058 214.77C240.038 214.525 120.019 214.28 60.0096 214.157L2.36352e-06 214.035L0.264845 84.4138Z" fill="#FBFBFB"/>
</svg>
